HIERARCHY
ROOT Hips
{
    OFFSET 0.000000 0.000000 0.000000
    CHANNELS 6 Xposition Yposition Zposition Zrotation Xrotation Yrotation
    JOINT Spine
    {
        OFFSET -0.000000 8.185774 0.000000
        CHANNELS 3 Zrotation Xrotation Yrotation
        JOINT Spine1
        {
            OFFSET -0.000000 23.949169 0.000000
            CHANNELS 3 Zrotation Xrotation Yrotation
            JOINT Neck
            {
                OFFSET -0.000000 23.850817 2.168256
                CHANNELS 3 Zrotation Xrotation Yrotation
                JOINT Head
                {
                    OFFSET -0.000000 13.975711 -1.996530
                    CHANNELS 3 Zrotation Xrotation Yrotation
                    End Site
                    {
                        OFFSET -0.000000 24.956627 0.000000
                    }
                }
            }
            JOINT LeftShoulder
            {
                OFFSET 3.979389 22.161966 -0.249083
                CHANNELS 3 Zrotation Xrotation Yrotation
                JOINT LeftArm
                {
                    OFFSET 10.812937 0.000000 0.000000
                    CHANNELS 3 Zrotation Xrotation Yrotation
                    JOINT LeftForeArm
                    {
                        OFFSET 31.697208 0.000000 0.000000
                        CHANNELS 3 Zrotation Xrotation Yrotation
                        JOINT LeftHand
                        {
                            OFFSET 27.047384 0.000000 0.000000
                            CHANNELS 3 Zrotation Xrotation Yrotation
                            End Site
                            {
                                OFFSET 14.973977 0.000000 0.000000
                            }
                        }
                    }
                }
            }
            JOINT RightShoulder
            {
                OFFSET -4.006446 22.161966 -0.249083
                CHANNELS 3 Zrotation Xrotation Yrotation
                JOINT RightArm
                {
                    OFFSET -10.812937 0.000000 0.000000
                    CHANNELS 3 Zrotation Xrotation Yrotation
                    JOINT RightForeArm
                    {
                        OFFSET -31.697208 0.000000 0.000000
                        CHANNELS 3 Zrotation Xrotation Yrotation
                        JOINT RightHand
                        {
                            OFFSET -27.047384 0.000000 0.000000
                            CHANNELS 3 Zrotation Xrotation Yrotation
                            End Site
                            {
                                OFFSET -14.973977 0.000000 0.000000
                            }
                        }
                    }
                }
            }
        }
    }
    JOINT LeftUpLeg
    {
        OFFSET 9.982651 0.000000 0.000000
        CHANNELS 3 Zrotation Xrotation Yrotation
        JOINT LeftLeg
        {
            OFFSET -0.000000 -38.511635 0.000000
            CHANNELS 3 Zrotation Xrotation Yrotation
            JOINT LeftFoot
            {
                OFFSET -0.000000 -44.789326 0.000000
                CHANNELS 3 Zrotation Xrotation Yrotation
                JOINT LeftToeBase
                {
                    OFFSET -0.000000 -6.488723 14.973977
                    CHANNELS 3 Zrotation Xrotation Yrotation
                    End Site
                    {
                        OFFSET -0.000000 0.000000 3.993060
                    }
                }
            }
        }
    }
    JOINT RightUpLeg
    {
        OFFSET -9.982651 0.000000 0.000000
        CHANNELS 3 Zrotation Xrotation Yrotation
        JOINT RightLeg
        {
            OFFSET -0.000000 -38.511635 0.000000
            CHANNELS 3 Zrotation Xrotation Yrotation
            JOINT RightFoot
            {
                OFFSET -0.000000 -44.789326 0.000000
                CHANNELS 3 Zrotation Xrotation Yrotation
                JOINT RightToeBase
                {
                    OFFSET -0.000000 -6.488723 14.973977
                    CHANNELS 3 Zrotation Xrotation Yrotation
                    End Site
                    {
                        OFFSET -0.000000 0.000000 3.993060
                    }
                }
            }
        }
    }
}
MOTION
Frames:    11
Frame Time:    0.008333
-8.038627    93.825600    216.942978    -0.062614    1.512269    178.361832    1.953847    -4.213863    -0.371569    -0.439621    -0.828830    -0.446774    2.603257    21.964771    -4.679021    -2.312601    -0.780027    -5.071644    13.473186    1.481514    -1.654294    -14.888654    2.042281    -2.817792    3.448206    3.926674    3.548162    -11.111835    3.747794    0.744751    -17.079012    -1.496136    0.096725    19.212229    -7.750231    0.029718    0.377874    6.298573    6.877385    -11.525322    7.544024    -12.605418    3.844624    6.952608    3.494720    -1.394181    9.107251    2.331240    -4.098571    -10.149431    11.500863    0.000000    0.000000    0.000000    -0.597142    6.812269    -1.022911    -0.398326    5.607179    -0.470495    1.821589    -7.845424    -19.457638    0.000000    0.000000    0.000000    
-8.176391    93.837204    216.948059    -0.111750    1.485331    178.414703    1.937343    -4.259155    -0.402633    -0.485771    -0.849758    -0.478436    2.523678    21.971275    -4.677798    -2.221442    -0.664064    -5.058817    13.438008    1.524294    -1.645572    -14.796449    1.789023    -2.791745    3.290667    4.275301    3.412371    -11.111243    4.096896    0.830941    -17.061642    -1.448104    0.057817    19.251373    -7.735542    0.077717    0.347989    6.310569    6.894886    -11.386232    7.541399    -12.596241    3.718251    7.157616    3.223086    -1.467528    8.641340    2.733715    -4.020691    -9.971799    11.333342    0.000000    0.000000    0.000000    -0.992429    6.079500    -7.368934    -0.771179    6.356974    -0.508272    2.567299    -7.076854    -13.483057    0.000000    0.000000    0.000000    
-8.296260    93.846527    216.949539    -0.108598    1.501183    178.422882    1.921074    -4.278600    -0.362774    -0.480170    -0.818130    -0.438022    2.656475    21.957390    -4.748846    -2.348725    -0.572364    -5.142827    13.523351    1.460677    -1.770363    -14.928396    1.902749    -2.775356    3.305330    4.168728    3.364839    -10.991771    3.990340    0.849362    -17.109726    -1.406944    -0.036959    19.326586    -7.576282    0.026511    0.318480    6.290789    6.966222    -11.293974    7.514972    -12.615599    3.668575    7.445811    3.005744    -1.569457    8.133141    3.098894    -3.905269    -9.800182    11.179762    0.000000    0.000000    0.000000    -0.867571    7.302895    -1.073210    -0.282690    4.749975    -0.404097    1.958821    -7.622590    -19.407732    0.000000    0.000000    0.000000    
-8.422418    93.845711    216.966537    -0.154874    1.434353    178.408691    1.896639    -4.402177    -0.370888    -0.490695    -0.749164    -0.446989    2.559816    21.892691    -4.724372    -2.263201    -0.381805    -5.108033    13.510043    1.495229    -1.736405    -14.967169    1.837093    -2.840704    3.238571    3.836559    3.311050    -10.637084    3.659600    0.899101    -17.191198    -1.473709    -0.000539    19.433842    -7.461158    0.000907    0.265671    6.300143    6.946638    -11.200346    7.514352    -12.586974    3.549801    7.592905    2.828811    -1.633149    7.705712    3.509648    -3.840961    -9.646747    10.958978    0.000000    0.000000    0.000000    -1.255360    6.520120    -7.111874    -0.546514    5.524961    -0.454282    2.715583    -6.935740    -13.661518    0.000000    0.000000    0.000000    
-8.535328    93.848389    216.974777    -0.149904    1.423371    178.412933    1.951483    -4.452330    -0.367373    -0.621088    -0.704370    -0.447096    2.636096    21.861908    -4.743397    -2.255713    -0.259939    -5.121077    13.613950    1.455564    -1.723712    -15.014953    1.885897    -2.875797    3.126655    3.433232    3.174607    -10.010440    3.239565    1.225526    -17.127840    -1.472794    -0.034347    19.434551    -7.397042    0.030657    0.322800    6.270443    6.910508    -11.206198    7.487513    -12.642652    3.514455    7.818576    2.649028    -1.727241    7.259679    3.767007    -3.730705    -9.526161    10.859409    0.000000    0.000000    0.000000    -1.346460    6.707148    -7.292601    -0.490843    5.205311    -0.430854    2.815406    -6.889737    -13.423237    0.000000    0.000000    0.000000    
-8.640199    93.836731    216.992737    -0.147900    1.363623    178.410721    1.940102    -4.569541    -0.358595    -0.613028    -0.592888    -0.439247    2.682148    21.709011    -4.755891    -2.336675    -0.041171    -5.142974    13.694362    1.379470    -1.680270    -15.097991    1.881096    -2.956430    3.199812    3.759447    3.269155    -10.610146    3.579201    0.961525    -17.002087    -1.247004    -0.093905    19.248718    -7.346123    0.116671    0.368796    6.192766    6.950249    -11.038875    7.393679    -12.695049    3.496036    7.941340    2.530191    -1.834170    6.906988    4.041465    -3.651899    -9.452741    10.691313    0.000000    0.000000    0.000000    -1.193864    7.775734    -1.113253    -0.177681    3.680504    -0.317046    2.211551    -7.475073    -19.258200    0.000000    0.000000    0.000000    
-8.745087    93.818054    217.006500    -0.149912    1.303712    178.387878    1.896091    -4.590857    -0.351387    -0.524125    -0.745050    -0.430968    2.637024    21.887461    -4.801994    -2.376878    0.013999    -5.193341    13.542912    1.422296    -1.727100    -15.013217    1.850016    -2.964600    3.282140    4.149808    3.374703    -10.984487    3.961399    0.958733    -17.036846    -1.219742    -0.049396    19.218166    -7.347353    0.128637    0.420853    6.276930    6.852847    -11.042956    7.477350    -12.716107    3.462639    8.068233    2.421310    -1.920685    6.569967    4.157676    -3.534215    -9.418742    10.664064    0.000000    0.000000    0.000000    -1.487023    6.901156    -7.315954    -0.403814    4.819564    1.767821    2.686038    -7.297997    -15.365076    0.000000    0.000000    0.000000    
-8.845510    93.803474    217.017242    -0.149333    1.303134    178.351807    1.909353    -4.608100    -0.340964    -0.578939    -0.761866    -0.421745    2.685091    21.877264    -4.750426    -2.411085    0.207588    -5.138280    13.581306    1.407714    -1.745377    -15.018533    1.842404    -2.966318    3.250458    4.153598    3.388752    -10.973764    3.968645    0.929120    -17.216988    -1.490837    0.005058    19.469513    -7.210088    0.031105    0.414462    6.410001    6.777233    -10.991393    7.605336    -12.719665    3.419871    8.254513    2.312405    -1.985210    6.241246    4.288913    -3.466863    -9.383617    10.652965    0.000000    0.000000    0.000000    -1.562564    6.958243    -7.208367    -0.401044    4.519360    -0.377954    2.984756    -6.859956    -13.460636    0.000000    0.000000    0.000000    
-8.929745    93.791954    217.031311    -0.106218    1.307125    178.307144    1.974485    -4.590223    -0.311169    -0.656872    -0.817716    -0.395188    2.718989    21.924782    -4.791440    -2.371823    0.338318    -5.169706    13.582337    1.432413    -1.753771    -14.964901    1.820697    -3.014997    3.162080    3.851059    3.327041    -10.617423    3.662413    1.045973    -17.131914    -1.429880    -0.041896    19.445070    -7.170593    0.097022    0.394632    6.449718    6.764616    -10.920855    7.642866    -12.767348    3.431811    8.406443    2.248271    -2.044034    5.990898    4.383015    -3.384742    -9.380638    10.617980    0.000000    0.000000    0.000000    -1.548808    7.066896    -7.382887    -0.453428    4.242069    -0.351746    3.067429    -6.676980    -13.305920    0.000000    0.000000    0.000000    
-9.016361    93.758728    217.057175    -0.106400    1.217416    178.260696    1.943099    -4.740685    -0.299457    -0.572874    -0.670688    -0.383201    2.612789    21.741468    -4.740921    -2.399606    0.515947    -5.127877    13.614042    1.319699    -1.711084    -15.041596    1.789237    -2.997422    3.151324    3.918182    3.290286    -10.474076    3.714473    1.239640    -17.451576    -1.596847    -0.084985    19.693291    -7.138038    0.089391    0.430101    6.510862    6.773443    -10.952966    7.711518    -12.831448    3.414643    8.429735    2.225181    -2.130037    5.786377    4.438044    -3.291481    -9.426392    10.607972    0.000000    0.000000    0.000000    -1.575618    7.010297    -7.466855    -0.511141    4.128129    -0.339242    3.221380    -6.717238    -13.113042    0.000000    0.000000    0.000000    
-9.118555    93.721603    217.070190    -0.172676    1.161117    178.264893    1.877263    -4.736530    -0.303283    -0.631376    -0.891763    -0.385960    2.725494    22.075405    -4.790298    -2.446407    0.383817    -5.173597    13.540425    1.422865    -1.755896    -15.041827    2.144578    -3.068913    3.333075    3.420859    3.362415    -10.425905    3.230944    1.012543    -17.228245    -1.496336    0.038522    19.521965    -7.048829    0.027963    0.361743    6.502948    6.734279    -10.825897    7.691184    -12.807295    3.310241    8.496029    2.112388    -2.191312    5.555347    4.563612    -3.171878    -9.439116    10.565074    0.000000    0.000000    0.000000    -1.705037    6.991077    -7.551120    -0.514798    4.047005    -0.332255    3.197721    -6.806056    -13.151169    0.000000    0.000000    0.000000    
